<svg width="67" height="34" viewBox="0 0 67 34" fill="none" xmlns="http://www.w3.org/2000/svg">
<rect width="67" height="30" rx="5.232" fill="#32343E"/>
<path d="M20.5175 9.39438H21.7983V10.1574C22.1798 10.2028 22.5295 10.2845 22.8474 10.4026C23.1744 10.5207 23.4469 10.6479 23.6649 10.7841V12.4873C23.3742 12.2965 23.0472 12.1239 22.6839 11.9695C22.3206 11.8151 21.9255 11.7379 21.4985 11.7379C21.2805 11.7379 21.0671 11.7697 20.8582 11.8333C20.6492 11.8968 20.4767 11.9968 20.3404 12.133C20.2042 12.2602 20.136 12.4282 20.136 12.6371C20.136 12.9096 20.2541 13.1185 20.4903 13.2639C20.7265 13.4001 21.0217 13.5364 21.3759 13.6726L22.4523 14.1086C23.0427 14.3357 23.4696 14.6309 23.733 14.9943C24.0055 15.3576 24.1418 15.7663 24.1418 16.2205C24.1418 16.6383 24.0373 17.0153 23.8284 17.3514C23.6286 17.6784 23.3515 17.9554 22.9973 18.1825C22.643 18.4096 22.2434 18.5685 21.7983 18.6594V19.7085H20.5175V18.7139C20.1179 18.6594 19.7364 18.5595 19.373 18.4141C19.0188 18.2597 18.7054 18.0826 18.4329 17.8828V16.1796C18.7872 16.443 19.1823 16.6701 19.6183 16.8609C20.0634 17.0425 20.5357 17.1334 21.0353 17.1334C21.3805 17.1334 21.6757 17.0653 21.9209 16.929C22.1662 16.7837 22.2888 16.5748 22.2888 16.3023C22.2888 16.0933 22.1889 15.9208 21.989 15.7845C21.7892 15.6392 21.5712 15.5211 21.335 15.4303L19.9862 14.9398C19.3322 14.7036 18.8916 14.3857 18.6645 13.986C18.4465 13.5773 18.3375 13.1322 18.3375 12.6508C18.3375 12.2238 18.4329 11.8469 18.6237 11.5199C18.8235 11.1838 19.0869 10.9068 19.4139 10.6888C19.7409 10.4617 20.1088 10.3027 20.5175 10.2119V9.39438ZM31.4993 9.87125V11.5608H28.1884V13.4819C28.3428 13.4183 28.529 13.3683 28.747 13.332C28.965 13.2866 29.1967 13.2639 29.4419 13.2639C29.8961 13.2639 30.3185 13.3774 30.709 13.6045C31.1087 13.8225 31.4312 14.1313 31.6764 14.531C31.9217 14.9216 32.0443 15.3848 32.0443 15.9208C32.0443 16.6293 31.8853 17.2288 31.5674 17.7193C31.2495 18.2007 30.8271 18.5685 30.3003 18.8229C29.7735 19.0772 29.1876 19.2044 28.5427 19.2044C27.9341 19.2044 27.4163 19.109 26.9894 18.9183C26.5625 18.7184 26.231 18.5231 25.9948 18.3324V16.6429C26.3218 16.8427 26.667 17.0425 27.0303 17.2424C27.3936 17.4331 27.8115 17.5285 28.2838 17.5285C28.8288 17.5285 29.2784 17.415 29.6327 17.1879C29.9869 16.9517 30.164 16.602 30.164 16.1388C30.164 15.7209 29.9824 15.3848 29.619 15.1305C29.2648 14.8762 28.8197 14.749 28.2838 14.749C27.9386 14.749 27.6207 14.7853 27.33 14.858C27.0485 14.9307 26.7805 15.0079 26.5262 15.0896V9.87125H31.4993ZM36.813 9.66688C37.5942 9.66688 38.2437 9.88488 38.7614 10.3209C39.2882 10.7478 39.6788 11.3246 39.9332 12.0513C40.1966 12.7688 40.3283 13.5636 40.3283 14.4356C40.3283 15.3076 40.1966 16.107 39.9332 16.8336C39.6788 17.5512 39.2882 18.128 38.7614 18.564C38.2437 18.9909 37.5942 19.2044 36.813 19.2044C36.0319 19.2044 35.3779 18.9909 34.851 18.564C34.3333 18.128 33.9427 17.5512 33.6793 16.8336C33.425 16.107 33.2978 15.3076 33.2978 14.4356C33.2978 13.5636 33.425 12.7688 33.6793 12.0513C33.9427 11.3246 34.3333 10.7478 34.851 10.3209C35.3779 9.88488 36.0319 9.66688 36.813 9.66688ZM36.813 11.3155C36.4497 11.3155 36.1454 11.4563 35.9002 11.7379C35.664 12.0104 35.4869 12.3828 35.3688 12.8551C35.2507 13.3184 35.1917 13.8452 35.1917 14.4356C35.1917 15.026 35.2507 15.5574 35.3688 16.0298C35.4869 16.493 35.664 16.8609 35.9002 17.1334C36.1454 17.4059 36.4497 17.5421 36.813 17.5421C37.1764 17.5421 37.4761 17.4059 37.7123 17.1334C37.9575 16.8609 38.1392 16.493 38.2573 16.0298C38.3845 15.5574 38.448 15.026 38.448 14.4356C38.448 13.8452 38.3845 13.3184 38.2573 12.8551C38.1392 12.3828 37.9575 12.0104 37.7123 11.7379C37.4761 11.4563 37.1764 11.3155 36.813 11.3155ZM44.6474 9.66688C45.4286 9.66688 46.078 9.88488 46.5958 10.3209C47.1226 10.7478 47.5132 11.3246 47.7675 12.0513C48.031 12.7688 48.1627 13.5636 48.1627 14.4356C48.1627 15.3076 48.031 16.107 47.7675 16.8336C47.5132 17.5512 47.1226 18.128 46.5958 18.564C46.078 18.9909 45.4286 19.2044 44.6474 19.2044C43.8662 19.2044 43.2122 18.9909 42.6854 18.564C42.1677 18.128 41.7771 17.5512 41.5137 16.8336C41.2593 16.107 41.1322 15.3076 41.1322 14.4356C41.1322 13.5636 41.2593 12.7688 41.5137 12.0513C41.7771 11.3246 42.1677 10.7478 42.6854 10.3209C43.2122 9.88488 43.8662 9.66688 44.6474 9.66688ZM44.6474 11.3155C44.2841 11.3155 43.9798 11.4563 43.7345 11.7379C43.4984 12.0104 43.3212 12.3828 43.2032 12.8551C43.0851 13.3184 43.026 13.8452 43.026 14.4356C43.026 15.026 43.0851 15.5574 43.2032 16.0298C43.3212 16.493 43.4984 16.8609 43.7345 17.1334C43.9798 17.4059 44.2841 17.5421 44.6474 17.5421C45.0107 17.5421 45.3105 17.4059 45.5467 17.1334C45.7919 16.8609 45.9736 16.493 46.0917 16.0298C46.2188 15.5574 46.2824 15.026 46.2824 14.4356C46.2824 13.8452 46.2188 13.3184 46.0917 12.8551C45.9736 12.3828 45.7919 12.0104 45.5467 11.7379C45.3105 11.4563 45.0107 11.3155 44.6474 11.3155Z" fill="white"/>
<path d="M33.568 33.8997L29.037 29.9757L38.0991 29.9757L33.568 33.8997Z" fill="#32343E"/>
</svg>
