<svg width="14" height="14" viewBox="0 0 14 14" fill="none" xmlns="http://www.w3.org/2000/svg">
<path d="M11 1C10.4696 1 9.96086 1.21071 9.58579 1.58579C9.21071 1.96086 9 2.46957 9 3V11C9 11.5304 9.21071 12.0391 9.58579 12.4142C9.96086 12.7893 10.4696 13 11 13C11.5304 13 12.0391 12.7893 12.4142 12.4142C12.7893 12.0391 13 11.5304 13 11C13 10.4696 12.7893 9.96086 12.4142 9.58579C12.0391 9.21071 11.5304 9 11 9H3C2.46957 9 1.96086 9.21071 1.58579 9.58579C1.21071 9.96086 1 10.4696 1 11C1 11.5304 1.21071 12.0391 1.58579 12.4142C1.96086 12.7893 2.46957 13 3 13C3.53043 13 4.03914 12.7893 4.41421 12.4142C4.78929 12.0391 5 11.5304 5 11V3C5 2.46957 4.78929 1.96086 4.41421 1.58579C4.03914 1.21071 3.53043 1 3 1C2.46957 1 1.96086 1.21071 1.58579 1.58579C1.21071 1.96086 1 2.46957 1 3C1 3.53043 1.21071 4.03914 1.58579 4.41421C1.96086 4.78929 2.46957 5 3 5H11C11.5304 5 12.0391 4.78929 12.4142 4.41421C12.7893 4.03914 13 3.53043 13 3C13 2.46957 12.7893 1.96086 12.4142 1.58579C12.0391 1.21071 11.5304 1 11 1Z" stroke="#2AE1E1" stroke-width="1.28571" stroke-linecap="round" stroke-linejoin="round"/>
</svg>
