<svg width="16" height="18" viewBox="0 0 16 18" fill="none" xmlns="http://www.w3.org/2000/svg">
<path d="M3.36434 1L1 4.15245V15.186C1 15.6041 1.16607 16.005 1.46167 16.3006C1.75727 16.5962 2.15819 16.7623 2.57623 16.7623H13.6098C14.0279 16.7623 14.4288 16.5962 14.7244 16.3006C15.02 16.005 15.186 15.6041 15.186 15.186V4.15245L12.8217 1H3.36434Z" stroke="#369BFF" stroke-width="1.5" stroke-linecap="round" stroke-linejoin="round"/>
<path d="M1 4.15234H15.186" stroke="#369BFF" stroke-width="1.5" stroke-linecap="round" stroke-linejoin="round"/>
<path d="M11.2458 7.30469C11.2458 8.14077 10.9137 8.94261 10.3225 9.53381C9.73129 10.125 8.92945 10.4571 8.09337 10.4571C7.25729 10.4571 6.45545 10.125 5.86425 9.53381C5.27305 8.94261 4.94092 8.14077 4.94092 7.30469" stroke="#369BFF" stroke-width="1.5" stroke-linecap="round" stroke-linejoin="round"/>
</svg>
