<svg width="19" height="5" viewBox="0 0 19 5" fill="none" xmlns="http://www.w3.org/2000/svg">
<path d="M9.40918 3.32568C9.96146 3.32568 10.4092 2.87797 10.4092 2.32568C10.4092 1.7734 9.96146 1.32568 9.40918 1.32568C8.85689 1.32568 8.40918 1.7734 8.40918 2.32568C8.40918 2.87797 8.85689 3.32568 9.40918 3.32568Z" stroke="#181C2E" stroke-width="2" stroke-linecap="round" stroke-linejoin="round"/>
<path d="M16.4092 3.32568C16.9615 3.32568 17.4092 2.87797 17.4092 2.32568C17.4092 1.7734 16.9615 1.32568 16.4092 1.32568C15.8569 1.32568 15.4092 1.7734 15.4092 2.32568C15.4092 2.87797 15.8569 3.32568 16.4092 3.32568Z" stroke="#181C2E" stroke-width="2" stroke-linecap="round" stroke-linejoin="round"/>
<path d="M2.40918 3.32568C2.96146 3.32568 3.40918 2.87797 3.40918 2.32568C3.40918 1.7734 2.96146 1.32568 2.40918 1.32568C1.85689 1.32568 1.40918 1.7734 1.40918 2.32568C1.40918 2.87797 1.85689 3.32568 2.40918 3.32568Z" stroke="#181C2E" stroke-width="2" stroke-linecap="round" stroke-linejoin="round"/>
</svg>
