<svg width="16" height="17" viewBox="0 0 16 17" fill="none" xmlns="http://www.w3.org/2000/svg">
<path d="M12.147 5.94299C12.147 4.7996 11.6928 3.70304 10.8843 2.89454C10.0758 2.08605 8.97925 1.63184 7.83586 1.63184C6.69248 1.63184 5.59592 2.08605 4.78742 2.89454C3.97892 3.70304 3.52472 4.7996 3.52472 5.94299C3.52472 10.9727 1.36914 12.4097 1.36914 12.4097H14.3026C14.3026 12.4097 12.147 10.9727 12.147 5.94299Z" stroke="#FFAA2A" stroke-width="1.5" stroke-linecap="round" stroke-linejoin="round"/>
<path d="M9.07887 15.2842C8.95254 15.5019 8.77123 15.6827 8.55307 15.8084C8.33492 15.934 8.08758 16.0002 7.83582 16.0002C7.58406 16.0002 7.33673 15.934 7.11857 15.8084C6.90041 15.6827 6.7191 15.5019 6.59277 15.2842" stroke="#FFAA2A" stroke-width="1.5" stroke-linecap="round" stroke-linejoin="round"/>
</svg>
