<svg width="24" height="24" viewBox="0 0 24 24" fill="none" xmlns="http://www.w3.org/2000/svg">
<path d="M8.22974 15.142V3.83093L9.48652 4.45933L10.7433 3.83093L11.9977 4.45933L13.2691 3.83093L14.5137 4.45933L15.7622 3.83093L17.0163 4.45933L18.284 3.83093L19.5412 4.45933L20.7976 3.83093V12.6285" stroke="#18CFE8" stroke-width="1.25679" stroke-linejoin="round"/>
<path d="M20.7975 12.6284V17.0272C20.7975 17.8605 20.4664 18.6597 19.8772 19.2489C19.288 19.8381 18.4888 20.1691 17.6555 20.1691V20.1691C16.8222 20.1691 16.023 19.8381 15.4338 19.2489C14.8445 18.6597 14.5135 17.8605 14.5135 17.0272V15.142H3.83081C3.74809 15.1413 3.66604 15.157 3.58947 15.1883C3.5129 15.2197 3.44333 15.2659 3.38483 15.3244C3.32634 15.3829 3.28008 15.4525 3.24876 15.529C3.21744 15.6056 3.20168 15.6877 3.20242 15.7704C3.20242 18.284 3.46713 20.1691 6.34439 20.1691H17.6555" stroke="#18CFE8" stroke-width="1.25679" stroke-linejoin="round"/>
<path d="M13.2567 10.7432H18.2839M10.7432 7.6012H18.2839H10.7432Z" stroke="#18CFE8" stroke-width="1.25679" stroke-linecap="round" stroke-linejoin="round"/>
</svg>
