<svg width="16" height="16" viewBox="0 0 16 16" fill="none" xmlns="http://www.w3.org/2000/svg">
<path d="M8 10C9.10457 10 10 9.10457 10 8C10 6.89543 9.10457 6 8 6C6.89543 6 6 6.89543 6 8C6 9.10457 6.89543 10 8 10Z" stroke="#413DFB" stroke-width="1.2" stroke-linecap="round" stroke-linejoin="round"/>
<path d="M12.9332 10.0003C12.8444 10.2014 12.818 10.4245 12.8572 10.6407C12.8964 10.857 12.9995 11.0565 13.1532 11.2137L13.1932 11.2537C13.3171 11.3775 13.4155 11.5245 13.4826 11.6864C13.5497 11.8483 13.5842 12.0218 13.5842 12.197C13.5842 12.3722 13.5497 12.5457 13.4826 12.7076C13.4155 12.8694 13.3171 13.0165 13.1932 13.1403C13.0693 13.2643 12.9223 13.3626 12.7604 13.4297C12.5986 13.4968 12.4251 13.5314 12.2498 13.5314C12.0746 13.5314 11.9011 13.4968 11.7392 13.4297C11.5774 13.3626 11.4303 13.2643 11.3065 13.1403L11.2665 13.1003C11.1094 12.9466 10.9098 12.8435 10.6936 12.8043C10.4773 12.7651 10.2542 12.7916 10.0532 12.8803C9.85599 12.9648 9.68782 13.1052 9.56937 13.284C9.45092 13.4629 9.38736 13.6725 9.3865 13.887V14.0003C9.3865 14.3539 9.24603 14.6931 8.99598 14.9431C8.74593 15.1932 8.40679 15.3337 8.05317 15.3337C7.69955 15.3337 7.36041 15.1932 7.11036 14.9431C6.86031 14.6931 6.71984 14.3539 6.71984 14.0003V13.9403C6.71467 13.7197 6.64325 13.5057 6.51484 13.3261C6.38644 13.1466 6.20699 13.0098 5.99984 12.9337C5.79876 12.8449 5.57571 12.8184 5.35944 12.8577C5.14318 12.8969 4.94362 13 4.7865 13.1537L4.7465 13.1937C4.62267 13.3176 4.47562 13.416 4.31376 13.4831C4.15189 13.5502 3.97839 13.5847 3.80317 13.5847C3.62795 13.5847 3.45445 13.5502 3.29258 13.4831C3.13072 13.416 2.98367 13.3176 2.85984 13.1937C2.73587 13.0698 2.63752 12.9228 2.57042 12.7609C2.50332 12.599 2.46879 12.4255 2.46879 12.2503C2.46879 12.0751 2.50332 11.9016 2.57042 11.7397C2.63752 11.5779 2.73587 11.4308 2.85984 11.307L2.89984 11.267C3.05353 11.1099 3.15663 10.9103 3.19584 10.6941C3.23505 10.4778 3.20858 10.2547 3.11984 10.0537C3.03533 9.85648 2.89501 9.68831 2.71615 9.56986C2.53729 9.45141 2.32769 9.38785 2.11317 9.38699H1.99984C1.64622 9.38699 1.30708 9.24652 1.05703 8.99647C0.80698 8.74642 0.666504 8.40728 0.666504 8.05366C0.666504 7.70004 0.80698 7.3609 1.05703 7.11085C1.30708 6.8608 1.64622 6.72033 1.99984 6.72033H2.05984C2.2805 6.71516 2.49451 6.64374 2.67404 6.51533C2.85357 6.38693 2.99031 6.20748 3.0665 6.00033C3.15525 5.79925 3.18172 5.5762 3.14251 5.35993C3.10329 5.14367 3.00019 4.94411 2.8465 4.78699L2.8065 4.74699C2.68254 4.62316 2.58419 4.47611 2.51709 4.31425C2.44999 4.15238 2.41545 3.97888 2.41545 3.80366C2.41545 3.62844 2.44999 3.45494 2.51709 3.29307C2.58419 3.13121 2.68254 2.98416 2.8065 2.86033C2.93033 2.73636 3.07739 2.63801 3.23925 2.57091C3.40111 2.50381 3.57462 2.46928 3.74984 2.46928C3.92506 2.46928 4.09856 2.50381 4.26042 2.57091C4.42229 2.63801 4.56934 2.73636 4.69317 2.86033L4.73317 2.90033C4.89029 3.05402 5.08985 3.15712 5.30611 3.19633C5.52237 3.23554 5.74543 3.20907 5.9465 3.12033H5.99984C6.19702 3.03582 6.36518 2.8955 6.48363 2.71664C6.60208 2.53778 6.66565 2.32818 6.6665 2.11366V2.00033C6.6665 1.6467 6.80698 1.30756 7.05703 1.05752C7.30708 0.807468 7.64621 0.666992 7.99984 0.666992C8.35346 0.666992 8.6926 0.807468 8.94264 1.05752C9.19269 1.30756 9.33317 1.6467 9.33317 2.00033V2.06033C9.33402 2.27485 9.39759 2.48444 9.51604 2.6633C9.63449 2.84216 9.80266 2.98248 9.99984 3.06699C10.2009 3.15574 10.424 3.18221 10.6402 3.143C10.8565 3.10378 11.056 3.00068 11.2132 2.84699L11.2532 2.80699C11.377 2.68302 11.5241 2.58468 11.6859 2.51758C11.8478 2.45048 12.0213 2.41594 12.1965 2.41594C12.3717 2.41594 12.5452 2.45048 12.7071 2.51758C12.869 2.58468 13.016 2.68302 13.1398 2.80699C13.2638 2.93082 13.3621 3.07787 13.4292 3.23974C13.4963 3.4016 13.5309 3.5751 13.5309 3.75033C13.5309 3.92555 13.4963 4.09905 13.4292 4.26091C13.3621 4.42278 13.2638 4.56983 13.1398 4.69366L13.0998 4.73366C12.9461 4.89078 12.843 5.09034 12.8038 5.3066C12.7646 5.52286 12.7911 5.74591 12.8798 5.94699V6.00033C12.9643 6.1975 13.1047 6.36567 13.2835 6.48412C13.4624 6.60257 13.672 6.66614 13.8865 6.66699H13.9998C14.3535 6.66699 14.6926 6.80747 14.9426 7.05752C15.1927 7.30756 15.3332 7.6467 15.3332 8.00033C15.3332 8.35395 15.1927 8.69309 14.9426 8.94313C14.6926 9.19318 14.3535 9.33366 13.9998 9.33366H13.9398C13.7253 9.33451 13.5157 9.39808 13.3369 9.51653C13.158 9.63498 13.0177 9.80315 12.9332 10.0003V10.0003Z" stroke="#413DFB" stroke-width="1.2" stroke-linecap="round" stroke-linejoin="round"/>
</svg>
