<svg width="24" height="24" viewBox="0 0 24 24" fill="none" xmlns="http://www.w3.org/2000/svg">
<g clip-path="url(#clip0_602_829)">
<path d="M22.8811 0.25354H1.11894C0.500974 0.25354 0 0.754514 0 1.37248V4.67957C0 5.29753 0.500974 5.7985 1.11894 5.7985H4.44592V10.2743C3.8591 10.9456 1.39246 13.8598 1.09407 15.7894C1.09221 15.8142 1.09221 15.8392 1.09407 15.864V23.249C1.09407 23.5236 1.31674 23.7463 1.59138 23.7463H7.61873C7.78148 23.746 7.93378 23.6662 8.02652 23.5324L10.5727 19.8673C10.6046 19.8202 10.6281 19.7681 10.6424 19.7131C10.6424 19.6336 10.9059 18.7484 11.1993 17.5349H19.0568C19.3314 17.5349 19.5541 17.3123 19.5541 17.0376V5.7985H22.8811C23.499 5.7985 24 5.29753 24 4.67957V1.37248C24 0.754514 23.499 0.25354 22.8811 0.25354ZM11.2242 12.2486C10.8576 14.6482 10.3511 17.0244 9.70742 19.365L7.35516 22.7467H2.08371V15.9237C2.27766 14.7898 3.49109 13.0492 4.44592 11.8507V17.0376C4.44592 17.3123 4.66859 17.5349 4.94322 17.5349H6.7385C6.79979 17.5344 6.86053 17.5227 6.91753 17.5001L6.97223 17.4703C7.00785 17.4528 7.04124 17.4311 7.0717 17.4056L7.11645 17.3559C7.13952 17.3283 7.15953 17.2983 7.17613 17.2664L7.20597 17.2017C7.20597 17.2017 7.20597 17.2017 7.20597 17.1669C7.70327 15.3269 8.7874 12.1491 9.60796 11.4429C10.1649 10.9456 10.4882 10.8909 10.6274 10.8909C10.7325 10.8886 10.8323 10.9366 10.896 11.0202C11.1396 11.3815 11.2552 11.8139 11.2242 12.2486ZM18.5595 16.5403H11.438C11.7464 15.1926 12.0597 13.641 12.2138 12.3679C12.2745 11.6586 12.0747 10.9515 11.6519 10.3787C11.4029 10.0879 11.0401 9.91918 10.6573 9.9162C10.0238 9.97202 9.43116 10.2524 8.98632 10.7069C7.83257 11.7015 6.72855 15.3269 6.37547 16.5602H5.44053V3.54571H18.5595V16.5403ZM23.0054 4.67459C23.0054 4.74328 22.9498 4.79892 22.8811 4.79892H19.5541V3.54571H20.4542C20.7288 3.54571 20.9515 3.32304 20.9515 3.0484C20.9515 2.77376 20.7288 2.5511 20.4542 2.5511H3.54579C3.27116 2.5511 3.04849 2.77376 3.04849 3.0484C3.04849 3.32304 3.27116 3.54571 3.54579 3.54571H4.45089V4.82378H1.11894C1.05025 4.82378 0.994613 4.76815 0.994613 4.69946V1.37248C0.994613 1.30379 1.05025 1.24815 1.11894 1.24815H22.8811C22.9498 1.24815 23.0054 1.30379 23.0054 1.37248V4.67459Z" fill="#FF7622"/>
</g>
<defs>
<clipPath id="clip0_602_829">
<rect width="24" height="24" fill="white"/>
</clipPath>
</defs>
</svg>
